<svg id="Layer_1" data-name="Layer 1" xmlns="http://www.w3.org/2000/svg" viewBox="0 0 270.35 259.48"><defs><style>.cls-1{fill:#3f3d56;}.cls-2{fill:#fff;}.cls-3{fill:#f44959;}.cls-4{fill:#e6e6e6;}.cls-5{fill:#f2f2f2;}.cls-6{fill:#9f616a;}.cls-7{fill:#2f2e41;}.cls-8{fill:#a0616a;}.cls-9{opacity:0.1;}.cls-11,.cls-9{isolation:isolate;}.cls-10{fill:#e5e5e5;}.cls-11{opacity:0.1;}</style></defs><g id="Group_67" data-name="Group 67"><path id="Path_968" data-name="Path 968" class="cls-1" d="M775.35,315.76h-1.42V276.81a22.55,22.55,0,0,0-22.55-22.55H668.85a22.55,22.55,0,0,0-22.55,22.55V490.52a22.55,22.55,0,0,0,22.55,22.54h82.53a22.55,22.55,0,0,0,22.55-22.54h0v-147h1.42Z" transform="translate(-547.83 -254.26)"/><path id="Path_969" data-name="Path 969" class="cls-2" d="M769.3,275.29V492a17.09,17.09,0,0,1-17.09,17.1H668a17.09,17.09,0,0,1-17.1-17.1h0V275.29a17.1,17.1,0,0,1,17.1-17.1H678.2a8.14,8.14,0,0,0,7.53,11.2h48a8.14,8.14,0,0,0,8.13-8.14,8.42,8.42,0,0,0-.6-3.06h10.94a17.11,17.11,0,0,1,17.1,17.1Z" transform="translate(-547.83 -254.26)"/><circle id="Ellipse_18" data-name="Ellipse 18" class="cls-3" cx="162.25" cy="72.87" r="35.16"/><path id="Path_39" data-name="Path 39" class="cls-4" d="M748.43,400.13H673.58a1.38,1.38,0,0,1-1.39-1.38V380.18a1.38,1.38,0,0,1,1.39-1.38h74.84a1.38,1.38,0,0,1,1.39,1.38v18.57a1.4,1.4,0,0,1-1.39,1.39Zm-74.85-20.78a.83.83,0,0,0-.83.83v18.57a.83.83,0,0,0,.83.83h74.85a.83.83,0,0,0,.83-.83V380.18a.83.83,0,0,0-.83-.83Z" transform="translate(-547.83 -254.26)"/><path id="Path_40" data-name="Path 40" class="cls-4" d="M696.73,385.48a1,1,0,0,0,0,1.94h45.73a1,1,0,0,0,.08-1.94H696.73Z" transform="translate(-547.83 -254.26)"/><path id="Path_41" data-name="Path 41" class="cls-4" d="M696.73,391.3a1,1,0,0,0,0,1.94h45.73a1,1,0,1,0,.08-1.93H696.73Z" transform="translate(-547.83 -254.26)"/><path id="Path_42" data-name="Path 42" class="cls-4" d="M748.43,431.08H673.58a1.39,1.39,0,0,1-1.39-1.39V411.13a1.39,1.39,0,0,1,1.39-1.39h74.84a1.39,1.39,0,0,1,1.39,1.39v18.56A1.38,1.38,0,0,1,748.43,431.08ZM673.58,410.3a.83.83,0,0,0-.83.83v18.56a.84.84,0,0,0,.83.84h74.85a.84.84,0,0,0,.83-.84V411.13a.83.83,0,0,0-.83-.83Z" transform="translate(-547.83 -254.26)"/><path id="Path_43" data-name="Path 43" class="cls-4" d="M696.73,416.53a1,1,0,0,0,0,1.94h45.73a1,1,0,0,0,0-1.94H696.73Z" transform="translate(-547.83 -254.26)"/><path id="Path_44" data-name="Path 44" class="cls-4" d="M696.73,422.35a1,1,0,0,0,0,1.94h45.73a1,1,0,0,0,0-1.94H696.73Z" transform="translate(-547.83 -254.26)"/><path id="Path_39-2" data-name="Path 39-2" class="cls-4" d="M748.43,462.13H673.58a1.4,1.4,0,0,1-1.39-1.39V442.17a1.38,1.38,0,0,1,1.39-1.38h74.84a1.38,1.38,0,0,1,1.39,1.38v18.57a1.38,1.38,0,0,1-1.39,1.38Zm-74.85-20.79a.83.83,0,0,0-.83.83v18.57a.83.83,0,0,0,.83.83h74.85a.83.83,0,0,0,.83-.83V442.17a.83.83,0,0,0-.83-.83Z" transform="translate(-547.83 -254.26)"/><path id="Path_40-2" data-name="Path 40-2" class="cls-4" d="M696.73,447.58a1,1,0,0,0,0,1.94h45.73a1,1,0,0,0,.08-1.94Z" transform="translate(-547.83 -254.26)"/><path id="Path_41-2" data-name="Path 41-2" class="cls-4" d="M696.73,453.4a1,1,0,0,0,0,1.94h45.73a1,1,0,0,0,.08-1.94Z" transform="translate(-547.83 -254.26)"/><path id="Path_970" data-name="Path 970" class="cls-4" d="M817.47,513.74H548.53c-.39,0-.7-.17-.7-.38s.31-.38.7-.38H817.47c.39,0,.7.17.7.38S817.86,513.74,817.47,513.74Z" transform="translate(-547.83 -254.26)"/><g id="Group_58" data-name="Group 58"><path id="Path_438" data-name="Path 438" class="cls-4" d="M806.07,498.9a7.11,7.11,0,0,1-6.85-1.21c-2.4-2-3.15-5.33-3.76-8.4l-1.81-9.08,3.79,2.61c2.73,1.87,5.51,3.81,7.4,6.53s2.71,6.42,1.2,9.36" transform="translate(-547.83 -254.26)"/><path id="Path_439" data-name="Path 439" class="cls-5" d="M805.49,510.52a45.6,45.6,0,0,0,.64-10.5,16.55,16.55,0,0,0-3.19-8.66,14.23,14.23,0,0,0-3.7-3.35c-.37-.24-.71.35-.34.58a13.72,13.72,0,0,1,5.42,6.54,22,22,0,0,1,1.16,9.46c-.12,1.93-.38,3.84-.64,5.75a.34.34,0,1,0,.65.18Z" transform="translate(-547.83 -254.26)"/><path id="Path_442" data-name="Path 442" class="cls-4" d="M802.06,505a5.24,5.24,0,0,1-4.55,2.35c-2.3-.11-4.22-1.72-6-3.24l-5.11-4.52,3.38-.16a20.36,20.36,0,0,1,7.25.53c2.31.75,4.45,2.55,4.87,4.95" transform="translate(-547.83 -254.26)"/><path id="Path_443" data-name="Path 443" class="cls-5" d="M806.84,512.52c-2.29-4.06-5-8.57-9.72-10a10.83,10.83,0,0,0-4.08-.42c-.44,0-.33.71.11.67a10.13,10.13,0,0,1,6.52,1.72,17.09,17.09,0,0,1,4.48,4.84c.74,1.13,1.41,2.31,2.07,3.49C806.43,513.17,807.06,512.9,806.84,512.52Z" transform="translate(-547.83 -254.26)"/></g><g id="Group_59" data-name="Group 59"><circle id="Ellipse_5" data-name="Ellipse 5" class="cls-3" cx="135.09" cy="135.09" r="5.82"/><path id="Path_40-3" data-name="Path 40-3" class="cls-4" d="M680.13,388.26a4,4,0,0,0,0,1.94h5.72c.07,0,.13-.41.13-.95a2.39,2.39,0,0,0-.12-1Z" transform="translate(-547.83 -254.26)"/></g><g id="Group_60" data-name="Group 60"><circle id="Ellipse_5-2" data-name="Ellipse 5-2" class="cls-3" cx="135.09" cy="166.15" r="5.82"/><path id="Path_40-4" data-name="Path 40-4" class="cls-4" d="M680.13,419.32a4,4,0,0,0,0,1.94h5.72c.07,0,.13-.41.13-.95a2.39,2.39,0,0,0-.12-1Z" transform="translate(-547.83 -254.26)"/></g><g id="Group_61" data-name="Group 61"><circle id="Ellipse_5-3" data-name="Ellipse 5-3" class="cls-3" cx="135.09" cy="197.2" r="5.82"/><path id="Path_40-5" data-name="Path 40-5" class="cls-4" d="M680.13,450.37a4,4,0,0,0,0,1.94h5.72c.07,0,.13-.42.13-.95a2.37,2.37,0,0,0-.12-1Z" transform="translate(-547.83 -254.26)"/></g><rect id="Rectangle_396" data-name="Rectangle 396" class="cls-2" x="708.62" y="314.94" width="2.91" height="24.4" transform="translate(-571.17 343.66) rotate(-45)"/><rect id="Rectangle_397" data-name="Rectangle 397" class="cls-2" x="697.88" y="325.68" width="24.4" height="2.91" transform="translate(-571.17 343.65) rotate(-45)"/><path id="Path_920" data-name="Path 920" class="cls-6" d="M580.69,420.36a3.66,3.66,0,0,0,2.23-4.67,3.15,3.15,0,0,0-.27-.59l8.58-9.78-6.7-.93-7.12,9.43a3.68,3.68,0,0,0,3.28,6.54Z" transform="translate(-547.83 -254.26)"/><path id="Path_921" data-name="Path 921" class="cls-6" d="M591,507.05h-6L582.21,484H591Z" transform="translate(-547.83 -254.26)"/><path id="Path_922" data-name="Path 922" class="cls-7" d="M592.57,512.86h-19.3v-.25a7.51,7.51,0,0,1,7.51-7.51h11.79Z" transform="translate(-547.83 -254.26)"/><path id="Path_923" data-name="Path 923" class="cls-6" d="M622.37,502.05l-5.72,1.77-9.56-21.2,8.43-2.62Z" transform="translate(-547.83 -254.26)"/><path id="Path_924" data-name="Path 924" class="cls-7" d="M625.55,507.13l-18.43,5.73-.07-.24a7.51,7.51,0,0,1,4.94-9.4h0l11.26-3.49Z" transform="translate(-547.83 -254.26)"/><path id="Path_926" data-name="Path 926" class="cls-8" d="M601.73,342.94a68.84,68.84,0,0,1,5.33,12.94s-12.15,11.78-11.55,4.53a97.61,97.61,0,0,0,0-14.51Z" transform="translate(-547.83 -254.26)"/><path id="Path_927" data-name="Path 927" class="cls-9" d="M601.73,342.94a68.84,68.84,0,0,1,5.33,12.94s-12.15,11.78-11.55,4.53a97.61,97.61,0,0,0,0-14.51Z" transform="translate(-547.83 -254.26)"/><path id="Path_973" data-name="Path 973" class="cls-4" d="M586.46,400.62l-8.87,10.16,6.94.62Z" transform="translate(-547.83 -254.26)"/><path id="Path_975" data-name="Path 975" class="cls-7" d="M583,413.71s-3.07,1.54-3.46,8.47,1.16,25,1.16,25-1.54,8.08,0,15.39-1.54,33.87.38,33.87,11.93,1.15,12.32,0,.77-18.48.77-18.48,3.07-8.85,0-14.24c0,0,10.75,18.78,17.7,33.1,1.52,3.14,13.08-.38,11.16-3.84s-6.55-19.25-6.55-19.25-3.46-11.54-9.62-16.55l3.08-24.63s6.55-16.54,2.7-18.85S583,413.71,583,413.71Z" transform="translate(-547.83 -254.26)"/><circle id="Ellipse_182" data-name="Ellipse 182" class="cls-8" cx="46.71" cy="86.71" r="10.01"/><path id="Path_976" data-name="Path 976" class="cls-10" d="M605.7,351.75l-12.44,7.31s-4.76,2.68-6.54,7.31c-1.9,4.94-.79,11.88,0,13.47,1.54,3.08-.65,10.78-.65,10.78l-1.92,17.7s-6.93,6.54-1.54,7.31,15-.38,20.78,0,12.32,1.16,10.39-2.69-4.23-6.55-1.92-14.24c1.81-6,1.73-28.54,1.61-38.05a7.63,7.63,0,0,0-3.72-6.47Z" transform="translate(-547.83 -254.26)"/><path id="Path_980" data-name="Path 980" class="cls-11" d="M600.12,363.87l1.16,23.48L590.09,410l-1.9-.73,11.54-21.16Z" transform="translate(-547.83 -254.26)"/><path id="Path_982" data-name="Path 982" class="cls-11" d="M612.82,392.35v-2.69l-13.08,21.55Z" transform="translate(-547.83 -254.26)"/><path id="Path_983" data-name="Path 983" class="cls-7" d="M587.44,331.7l-1.66-.66s3.46-3.81,8.28-3.47l-1.36-1.49s3.31-1.33,6.32,2.15a29.41,29.41,0,0,1,4.55,6.4h1.77l-.74,1.63,2.59,1.62-2.66-.29a8.87,8.87,0,0,1-.25,4.22l.08,1.29s-3.08-4.77-3.08-5.43v1.65s-1.66-1.49-1.66-2.48l-.9,1.16-.45-1.82L592.71,338l.9-1.49-3.46.5,1.35-1.82s-3.91,2.15-4.06,4-2.1,4.14-2.1,4.14l-.9-1.66S583.08,334.19,587.44,331.7Z" transform="translate(-547.83 -254.26)"/><path id="Path_925" data-name="Path 925" class="cls-6" d="M593.91,421.45a3.67,3.67,0,0,0,1.37-5,4.6,4.6,0,0,0-.37-.53l6.71-11.15-6.76.28-5.33,10.55a3.68,3.68,0,0,0,4.38,5.85Z" transform="translate(-547.83 -254.26)"/><path id="Path_981" data-name="Path 981" class="cls-10" d="M609.16,356.75l2.89-.57s8.66,6.35,6,19.05-14.62,31.94-14.62,31.94-2.69,3.46-3.46,4.23-2.31,0-1.54,1.16-1.16,1.92-1.16,1.92-8.46,0-7.7-3.08,13.86-25,13.86-25L601.47,366S599.93,356,609.16,356.75Z" transform="translate(-547.83 -254.26)"/></g></svg>