<svg id="Layer_1" data-name="Layer 1" xmlns="http://www.w3.org/2000/svg" viewBox="0 0 268.52 232.5"><defs><style>.cls-1{fill:#2f2e41;}.cls-2{fill:#212121;}.cls-3{fill:#ffb8b8;}.cls-4{fill:#2682fd;}.cls-5{fill:#313131;}.cls-6{fill:#e6e6e6;}.cls-7{fill:#3f3d56;}.cls-8{fill:#31b755;}.cls-9{fill:#37cc5f;}.cls-10{opacity:0.1;isolation:isolate;}.cls-11{fill:#fff;}</style></defs><g id="Group_64" data-name="Group 64"><path id="Path_875" data-name="Path 875" class="cls-1" d="M615.06,305.31h0c-7.46,0-12.89,5.58-14.72,13.54l-2.27,11.94h2.27l2.84-9.78-.74,9.78h1.82l1.34-5-.28,5h21.81V318.6C627.13,311.26,621.72,305.31,615.06,305.31Z" transform="translate(-549.62 -267.75)"/><path id="Path_876" data-name="Path 876" class="cls-2" d="M605.2,369.4s-11,15.34-10.5,21.53S602.23,498,602.23,498l16.42.81-4.85-72.66,4-19.64,10,91.5,20.18.53L630,379.9l-3.5-10.5Z" transform="translate(-549.62 -267.75)"/><path id="Path_877" data-name="Path 877" class="cls-3" d="M609,322.58s3.5,6.46-1.07,10.76-6.73,15.88-6.73,15.88L627,347.33l-2.16-14.53s-5.65-3.5-4.3-9.69Z" transform="translate(-549.62 -267.75)"/><path id="Path_878" data-name="Path 878" class="cls-4" d="M604.66,339.8s1.61,4.85,8.61,4.31a24.08,24.08,0,0,0,11.84-4.31v31.49l-21.53-.81V351.37Z" transform="translate(-549.62 -267.75)"/><path id="Path_879" data-name="Path 879" class="cls-5" d="M606,371.29l1.62-5.38s-.54-12.65-2.69-17.77c0,0,4.11-13.47,4.75-17.36l-2.06,1.49-12.38,5.92,4.31,22.33,3,4.85-3.07,12.72Z" transform="translate(-549.62 -267.75)"/><path id="Path_880" data-name="Path 880" class="cls-5" d="M616.5,370.21l6.19-33.64-1.7-8.34,4.93,4.84,9.69,3L631,361.33l-2.69,5.39,1.33,12.07Z" transform="translate(-549.62 -267.75)"/><path id="Path_881" data-name="Path 881" class="cls-3" d="M641.26,392.82s2.69,11.57-2.69,12.91-3.5-12.91-3.5-12.91Z" transform="translate(-549.62 -267.75)"/><path id="Path_882" data-name="Path 882" class="cls-3" d="M593.79,380.8s10.36,5.81,7.73,10.69-11.9-6.12-11.9-6.12Z" transform="translate(-549.62 -267.75)"/><path id="Path_883" data-name="Path 883" class="cls-5" d="M631.57,336.57l4-.54s2.42,3.23,2.69,5.65S642.87,385,642.87,385c.31.89,0,1.77-.27,9.15l-.8,3.23s-1.62-6.19-7.8-3l-.81-3.77s-1.62-14.26-1.62-21-.53-14-.53-14Z" transform="translate(-549.62 -267.75)"/><ellipse id="Ellipse_228" data-name="Ellipse 228" class="cls-1" cx="62.45" cy="230.69" rx="3.83" ry="1.43"/><ellipse id="Ellipse_229" data-name="Ellipse 229" class="cls-1" cx="88.28" cy="230.69" rx="3.83" ry="1.43"/><path id="Path_884" data-name="Path 884" class="cls-5" d="M598.2,337.92l-3,.27-6.73,26.1s-.81,33.89,5.92,27.45c0,0-2.42-7,3.77-9.42V368.06l2.15-12.38Z" transform="translate(-549.62 -267.75)"/><ellipse id="Ellipse_230" data-name="Ellipse 230" class="cls-3" cx="74.41" cy="52.27" rx="0.4" ry="1.35"/><ellipse id="Ellipse_231" data-name="Ellipse 231" class="cls-3" cx="56.11" cy="52.27" rx="0.4" ry="1.35"/><circle id="Ellipse_232" data-name="Ellipse 232" class="cls-3" cx="65.26" cy="51.6" r="8.88"/><path id="Path_885" data-name="Path 885" class="cls-1" d="M611,314.64l-.22,2.15h6.14l.81-1.61-.17,1.61H625l-5.12-8.07-11.3.27-2.69,7.8h4Z" transform="translate(-549.62 -267.75)"/><path id="Path_886" data-name="Path 886" class="cls-6" d="M746.21,415.75a71.93,71.93,0,1,1,71.93-71.93A71.92,71.92,0,0,1,746.21,415.75Zm0-143.17a71.24,71.24,0,1,0,71.23,71.24,71.24,71.24,0,0,0-71.23-71.24Z" transform="translate(-549.62 -267.75)"/><path id="Path_887" data-name="Path 887" class="cls-6" d="M746.21,395.6A51.78,51.78,0,1,1,798,343.82h0A51.85,51.85,0,0,1,746.21,395.6Zm0-102.86a51.08,51.08,0,1,0,51.08,51.08h0a51.13,51.13,0,0,0-51.08-51.08Z" transform="translate(-549.62 -267.75)"/><path id="Path_888" data-name="Path 888" class="cls-6" d="M746.21,375.21a31.39,31.39,0,1,1,31.39-31.39,31.39,31.39,0,0,1-31.39,31.39Zm0-62.09a30.7,30.7,0,1,0,30.7,30.7,30.7,30.7,0,0,0-30.7-30.7Z" transform="translate(-549.62 -267.75)"/><circle id="Ellipse_233" data-name="Ellipse 233" class="cls-4" cx="196.59" cy="76.07" r="15.94"/><circle id="Ellipse_234" data-name="Ellipse 234" class="cls-4" cx="207.99" cy="5.05" r="5.05"/><circle id="Ellipse_235" data-name="Ellipse 235" class="cls-4" cx="144.61" cy="125.19" r="5.05"/><circle id="Ellipse_236" data-name="Ellipse 236" class="cls-6" cx="145.31" cy="81.76" r="5.05"/><circle id="Ellipse_237" data-name="Ellipse 237" class="cls-6" cx="239.83" cy="47.7" r="5.05"/><circle id="Ellipse_238" data-name="Ellipse 238" class="cls-6" cx="259.64" cy="110.6" r="5.05"/><circle id="Ellipse_239" data-name="Ellipse 239" class="cls-4" cx="244.93" cy="88.26" r="5.05"/><circle id="Ellipse_240" data-name="Ellipse 240" class="cls-4" cx="134.12" cy="40.05" r="5.05"/><circle id="Ellipse_241" data-name="Ellipse 241" class="cls-4" cx="215.38" cy="145.41" r="5.05"/><path id="Path_889" data-name="Path 889" class="cls-6" d="M552.87,492.73c5,6.71,15.41,7.41,15.41,7.41s2.28-10.17-2.73-16.88-15.41-7.42-15.41-7.42S547.86,486,552.87,492.73Z" transform="translate(-549.62 -267.75)"/><path id="Path_890" data-name="Path 890" class="cls-6" d="M578.4,495.25c-3.31,4.43-10.17,4.89-10.17,4.89s-1.5-6.71,1.8-11.14,10.17-4.89,10.17-4.89S581.7,490.82,578.4,495.25Z" transform="translate(-549.62 -267.75)"/><rect id="Rectangle_390" data-name="Rectangle 390" class="cls-7" x="2.84" y="231.72" width="230.74" height="0.78"/></g><g id="Group_63" data-name="Group 63"><path id="Path_859" data-name="Path 859" class="cls-8" d="M745.5,366.5a7.8,7.8,0,0,1-2-.26l-.13,0-.11-.06a32.68,32.68,0,0,1-10.7-8.4,31.66,31.66,0,0,1-5.4-9.59,36.87,36.87,0,0,1-2.09-13v-.22a5.13,5.13,0,0,1,3-4.8l15.18-6.25a4.92,4.92,0,0,1,3.91,0c.67.27,12.54,5.13,15.1,6.35a5.45,5.45,0,0,1,3.35,4.65A38,38,0,0,1,763,349.19a33.37,33.37,0,0,1-6,9.6,28.83,28.83,0,0,1-9.77,7.42A5.26,5.26,0,0,1,745.5,366.5Zm-1.15-2.83a4.35,4.35,0,0,0,2,0,27,27,0,0,0,8.67-6.68c5.26-5.91,7.92-13.34,7.92-22.09a2.77,2.77,0,0,0-1.8-2.23c-2.52-1.2-14.85-6.25-15-6.3h0a2.24,2.24,0,0,0-1.65,0l-.11.05-15.22,6.26A2.43,2.43,0,0,0,727.8,335v.26c-.12,6,1.26,20.71,16.55,28.46Z" transform="translate(-549.62 -267.75)"/><path id="Path_860" data-name="Path 860" class="cls-9" d="M743.88,325.12s-13.75,5.65-15.22,6.27a3.72,3.72,0,0,0-2.21,3.56c0,1.47-1.11,20.7,17.43,30a5.71,5.71,0,0,0,3,0c1.28-.47,17.48-8.33,17.48-30.06a4.09,4.09,0,0,0-2.57-3.44c-2.58-1.23-15-6.32-15-6.32A3.68,3.68,0,0,0,743.88,325.12Z" transform="translate(-549.62 -267.75)"/><path id="Path_861" data-name="Path 861" class="cls-10" d="M745.36,329.54v30.13a26.82,26.82,0,0,1-13.76-24.23Z" transform="translate(-549.62 -267.75)"/><path id="Path_862" data-name="Path 862" class="cls-11" d="M743.54,351.2l-4.42-5.68,2.57-2,2.09,2.69,7.07-7.47,2.36,2.24Z" transform="translate(-549.62 -267.75)"/></g></svg>