<svg id="Layer_1" data-name="Layer 1" xmlns="http://www.w3.org/2000/svg" viewBox="0 0 302.82 240.23"><defs><style>.cls-1{fill:#2682fd;}.cls-2{fill:#fff;}.cls-3{fill:#e6e6e6;}.cls-4{fill:#f2f2f2;}.cls-5{fill:#3f3d56;}.cls-6{fill:#2f2e41;}.cls-7{fill:#a0616a;}.cls-8{fill:#eaaeb6;}.cls-9{fill:#111;opacity:0.1;isolation:isolate;}.cls-10{fill:#37cc5f;}.cls-11{fill:#ccc;}</style></defs><g id="Group_68" data-name="Group 68"><path id="Path_928" data-name="Path 928" class="cls-1" d="M817.5,389.86c6.23-9.74,3.85-22.38-2.77-26.61s-19.08-1.08-25.31,8.66c-5.76,9-3.86,20.7,1.4,25.55a.77.77,0,0,0-.29.1l-1.54,1a.81.81,0,0,0-.25,1.12.84.84,0,0,0,.26.27l3.31,2a.82.82,0,0,0,1.12-.27.89.89,0,0,0,.11-.35l.16-1.82a.55.55,0,0,0,0-.18C800.29,402.07,811.73,398.89,817.5,389.86Z" transform="translate(-531.59 -265.08)"/><path id="Path_929" data-name="Path 929" class="cls-2" d="M814.34,370.65a13.37,13.37,0,0,1-8,16.46c-.73.28-.41,1.46.32,1.18a14.63,14.63,0,0,0,8.82-18A.61.61,0,0,0,814.34,370.65Z" transform="translate(-531.59 -265.08)"/><path id="Path_930" data-name="Path 930" class="cls-3" d="M592.05,354.43c6.43-8.6,18.19-10.68,24-6.31s7.19,16.24.76,24.84c-6,8-16.73,10.14-22.67,7.16a.66.66,0,0,1,0,.28l-.33,1.65a.76.76,0,0,1-.89.59.68.68,0,0,1-.31-.14l-2.84-2.22a.76.76,0,0,1-.13-1.06A.79.79,0,0,1,590,379l1.53-.73.17,0C587.07,373.39,586.09,362.41,592.05,354.43Z" transform="translate(-531.59 -265.08)"/><path id="Path_931" data-name="Path 931" class="cls-2" d="M606.11,351.18a12.42,12.42,0,0,0-10.4,13.59c.07.72-1.06.72-1.13,0a13.58,13.58,0,0,1,11.23-14.68C606.52,350,606.83,351.06,606.11,351.18Z" transform="translate(-531.59 -265.08)"/><path id="Path_932" data-name="Path 932" class="cls-4" d="M753.83,475.88c5-7.9,3.12-18.16-2.25-21.59s-15.49-.87-20.54,7c-4.67,7.31-3.13,16.8,1.14,20.73a.63.63,0,0,0-.23.08l-1.25.79a.65.65,0,0,0-.21.91.84.84,0,0,0,.21.21l2.69,1.63a.65.65,0,0,0,.9-.22.72.72,0,0,0,.1-.29l.12-1.47a.76.76,0,0,0,0-.15C739.87,485.79,749.14,483.21,753.83,475.88Z" transform="translate(-531.59 -265.08)"/><path id="Path_933" data-name="Path 933" class="cls-5" d="M830.18,297.39H535.82a4.23,4.23,0,0,0-4.23,4.23V501.08a4.23,4.23,0,0,0,4.23,4.23H830.18a4.23,4.23,0,0,0,4.23-4.23V301.62a4.23,4.23,0,0,0-4.23-4.23Zm3,203.69a3,3,0,0,1-3,3H535.82a3,3,0,0,1-3-3V301.62a3,3,0,0,1,3-3H830.18a3,3,0,0,1,3,3Z" transform="translate(-531.59 -265.08)"/><rect id="Rectangle_398" data-name="Rectangle 398" class="cls-5" x="0.61" y="49.25" width="301.61" height="1.21"/><circle id="Ellipse_256" data-name="Ellipse 256" class="cls-5" cx="10.88" cy="41.37" r="3.63"/><circle id="Ellipse_257" data-name="Ellipse 257" class="cls-5" cx="21.31" cy="41.37" r="3.63"/><circle id="Ellipse_258" data-name="Ellipse 258" class="cls-5" cx="31.73" cy="41.37" r="3.63"/><circle id="Ellipse_259" data-name="Ellipse 259" class="cls-6" cx="150.24" cy="99.29" r="12.34"/><path id="Path_934" data-name="Path 934" class="cls-7" d="M702.75,483.54l-4.49,2.18-10.53-16.25,6.62-3.21Z" transform="translate(-531.59 -265.08)"/><path id="Path_935" data-name="Path 935" class="cls-6" d="M694.44,486l8.64-4.2,2.64,5.44-14.08,6.84a6,6,0,0,1,2.8-8.08Z" transform="translate(-531.59 -265.08)"/><path id="Path_936" data-name="Path 936" class="cls-6" d="M693.8,483.12a2.1,2.1,0,0,1-.43-.05,1.91,1.91,0,0,1-1.25-1l-12-23.84a2,2,0,0,1,.48-2.38l6.7-5.63a1.86,1.86,0,0,1,1.66-.39,1.88,1.88,0,0,1,1.3,1.15l10.28,25.82a2,2,0,0,1-.64,2.3l-5,3.65a1.9,1.9,0,0,1-1.12.37Z" transform="translate(-531.59 -265.08)"/><path id="Path_937" data-name="Path 937" class="cls-7" d="M689.53,495l-4.59,1.93-9.65-16.79,6.78-2.85Z" transform="translate(-531.59 -265.08)"/><path id="Path_938" data-name="Path 938" class="cls-6" d="M681.11,497l8.86-3.73,2.35,5.58-14.44,6.08a6.06,6.06,0,0,1,3.23-7.93Z" transform="translate(-531.59 -265.08)"/><path id="Path_939" data-name="Path 939" class="cls-6" d="M682.22,495a1.82,1.82,0,0,1-1.59-.92c-1.67-3-6.2-11.19-12.11-23.64-7-14.77,8.53-31.15,11.71-34.28a1.43,1.43,0,0,0,.42-1.09L680,422.59a1.83,1.83,0,0,1,1.53-1.9l18.36-3a1.87,1.87,0,0,1,1.71.65c3.1,3.76,4.43,7.81,4,12-1,8.62-9.09,15.13-10,15.84l-.11.1-16.61,15.84a1.4,1.4,0,0,0-.34,1.56L688.73,489a1.83,1.83,0,0,1-.62,2.17l-4.82,3.48A1.79,1.79,0,0,1,682.22,495Z" transform="translate(-531.59 -265.08)"/><path id="Path_940" data-name="Path 940" class="cls-8" d="M666.14,409.51a1.84,1.84,0,0,1-1.13-.39L650.2,397.48l-.42.13a4.47,4.47,0,1,1,3.33-5.38h0c0,.2.07.39.09.59l12.66,9.2,4.84-5,4.76,6.23-8.26,5.89A1.82,1.82,0,0,1,666.14,409.51Z" transform="translate(-531.59 -265.08)"/><path id="Path_962" data-name="Path 962" class="cls-8" d="M690.31,383.54a41.85,41.85,0,0,0-4.71-12s-4.34-.21-4.19,4-.36,12.24-.36,12.24Z" transform="translate(-531.59 -265.08)"/><path id="Path_963" data-name="Path 963" class="cls-9" d="M690.31,383.54a41.85,41.85,0,0,0-4.71-12s-4.34-.21-4.19,4-.36,12.24-.36,12.24Z" transform="translate(-531.59 -265.08)"/><circle id="Ellipse_260" data-name="Ellipse 260" class="cls-8" cx="148.74" cy="104.78" r="9.98"/><path id="Path_941" data-name="Path 941" class="cls-10" d="M685.05,428.73a6.64,6.64,0,0,1-2.38-.43A5.27,5.27,0,0,1,680,426c-3.09-5.38-9.73-22.05-3.54-34.43,4.16-8.33,8.77-10.31,11.91-10.51,2.89-.18,3.45.46,4.42,3.07h0c.53,1.44,1.58,3.5,2.78,5.9,4.34,8.58,10.89,21.54,5.4,28C695.05,425,689.41,428.73,685.05,428.73Z" transform="translate(-531.59 -265.08)"/><path id="Path_942" data-name="Path 942" class="cls-10" d="M677,405.22a1.32,1.32,0,0,1-.81-.27L668.37,399a1.33,1.33,0,0,1-.25-1.87.93.93,0,0,1,.13-.15l7.48-7.2a3.24,3.24,0,0,1,5.4,3.13l-2.87,11.3a1.34,1.34,0,0,1-1.3,1Z" transform="translate(-531.59 -265.08)"/><path id="Path_943" data-name="Path 943" class="cls-8" d="M684.09,421.58a4.47,4.47,0,0,1-.74-8.88h0a3.05,3.05,0,0,1,.6-.06l13.2-16.31-4.41-4.75,6.51-4.37,5.37,8.6a1.84,1.84,0,0,1-.19,2.19l-16,17.92c0,.14.07.29.1.43a4.47,4.47,0,0,1-3.66,5.16,4,4,0,0,1-.5.06Z" transform="translate(-531.59 -265.08)"/><path id="Path_944" data-name="Path 944" class="cls-10" d="M692.89,395.64a1.32,1.32,0,0,1-1.13-.64l-5.45-8.84a3.26,3.26,0,0,1,.21-3.71h0a3.27,3.27,0,0,1,4-.9l10.42,5.21a1.33,1.33,0,0,1,.6,1.79,1.23,1.23,0,0,1-.33.42l-7.45,6.34A1.33,1.33,0,0,1,692.89,395.64Z" transform="translate(-531.59 -265.08)"/><path id="Path_945" data-name="Path 945" class="cls-1" d="M672.2,380.28l7-4.31-.52-.84-6.6,4.07a2,2,0,1,0,.1,1.08Z" transform="translate(-531.59 -265.08)"/><path id="Path_946" data-name="Path 946" class="cls-6" d="M687.26,354.44s-4.68,4.6-14.84,6.05-2.18,17.41-2.18,17.41-2.9-5.8,2.9-10.88S687.26,361,687.26,354.44Z" transform="translate(-531.59 -265.08)"/><path id="Path_947" data-name="Path 947" class="cls-6" d="M682.28,351.19s2.9,10.16,7.26,11.61,2.17,16.69-5.08,18.14c0,0,6.17-8.35,2.54-14.88S681.19,354.45,682.28,351.19Z" transform="translate(-531.59 -265.08)"/><path id="Path_948" data-name="Path 948" class="cls-10" d="M689.05,358.7l-.13,0-11.38-3.88a1.13,1.13,0,0,1-.4-1.89l9.12-8.37a1.12,1.12,0,0,1,1.58.06,1.17,1.17,0,0,1,.27.56l2.26,12.26a1.11,1.11,0,0,1-.89,1.3,1.09,1.09,0,0,1-.44,0Z" transform="translate(-531.59 -265.08)"/><path id="Path_949" data-name="Path 949" class="cls-3" d="M683.77,347.11l4.67,1-.26-1.38-3.25-.69Z" transform="translate(-531.59 -265.08)"/><path id="Path_950" data-name="Path 950" class="cls-3" d="M682.79,348l5.86,1.24.25,1.38-7.27-1.55Z" transform="translate(-531.59 -265.08)"/><path id="Path_951" data-name="Path 951" class="cls-11" d="M681.92,338.14l1.49,4.62a.61.61,0,0,0,1.18-.33l-1.49-4.61a.63.63,0,0,0-.75-.43A.61.61,0,0,0,681.92,338.14Z" transform="translate(-531.59 -265.08)"/><path id="Path_952" data-name="Path 952" class="cls-11" d="M689.16,336.58l-1.42,4.83a.61.61,0,0,0,1.18.32l1.42-4.83a.62.62,0,0,0-.44-.74A.61.61,0,0,0,689.16,336.58Z" transform="translate(-531.59 -265.08)"/><path id="Path_953" data-name="Path 953" class="cls-11" d="M694.41,341l-3.51,3.6c-.55.56.34,1.4.89.84l3.51-3.6C695.85,341.27,695,340.44,694.41,341Z" transform="translate(-531.59 -265.08)"/><path id="Path_954" data-name="Path 954" class="cls-2" d="M751.26,460.29a10.86,10.86,0,0,1-6.47,13.36c-.59.23-.33,1.19.26,1A11.87,11.87,0,0,0,752.21,460C752,459.42,751.07,459.68,751.26,460.29Z" transform="translate(-531.59 -265.08)"/><path id="Path_955" data-name="Path 955" class="cls-3" d="M785.8,293.53c6.23-9.74,3.85-22.38-2.77-26.61s-19.09-1.08-25.31,8.66c-5.76,9-3.86,20.7,1.4,25.55a1,1,0,0,0-.29.1l-1.54,1a.81.81,0,0,0-.25,1.12.72.72,0,0,0,.26.26l3.31,2a.82.82,0,0,0,1.12-.28.8.8,0,0,0,.11-.35l.15-1.81a.61.61,0,0,0,0-.19C768.59,305.75,780,302.57,785.8,293.53Z" transform="translate(-531.59 -265.08)"/><path id="Path_956" data-name="Path 956" class="cls-2" d="M782.64,274.32a13.38,13.38,0,0,1-8,16.47c-.72.28-.41,1.46.33,1.17a14.61,14.61,0,0,0,8.82-18c-.22-.75-1.4-.43-1.17.32Z" transform="translate(-531.59 -265.08)"/><path id="Path_957" data-name="Path 957" class="cls-1" d="M614.39,288.87c-6.92-9.26-19.59-11.5-25.88-6.79s-7.74,17.48-.82,26.74c6.41,8.57,18,10.91,24.4,7.7a.76.76,0,0,0,0,.3l.36,1.78a.82.82,0,0,0,1,.64.89.89,0,0,0,.34-.16l3-2.39a.8.8,0,0,0,.14-1.14.66.66,0,0,0-.29-.23l-1.64-.78a.64.64,0,0,0-.18-.06C619.75,309.28,620.81,297.46,614.39,288.87Z" transform="translate(-531.59 -265.08)"/><path id="Path_958" data-name="Path 958" class="cls-2" d="M599.25,285.37A13.38,13.38,0,0,1,610.45,300c-.07.78,1.14.78,1.22,0a14.63,14.63,0,0,0-12.1-15.8C598.81,284.07,598.48,285.24,599.25,285.37Z" transform="translate(-531.59 -265.08)"/><path id="Path_959" data-name="Path 959" class="cls-1" d="M586.61,416.29a19.19,19.19,0,0,1,15,8.89c.45.72,1,1.52.73,2.41a1.57,1.57,0,0,1-1.65,1.1,2.08,2.08,0,0,1-.21-4c2.1-.9,4.21.49,5.92,1.59,3.9,2.52,8.18,4.79,12.9,5.08,4.37.26,9.05-1.45,11.48-5.24.43-.66-.63-1.27-1-.61-2.41,3.75-7.28,5.1-11.51,4.52a22.4,22.4,0,0,1-7.2-2.44c-1.17-.6-2.29-1.28-3.4-2a22,22,0,0,0-3.34-1.91c-1.94-.8-4.51-.74-5.87,1.1a3.34,3.34,0,0,0,1,4.64,3.21,3.21,0,0,0,.88.41,2.85,2.85,0,0,0,3.36-2.25,2.79,2.79,0,0,0,0-1.15,8.26,8.26,0,0,0-1.56-2.83,20.43,20.43,0,0,0-15.42-8.54c-.79,0-.78,1.18,0,1.22Z" transform="translate(-531.59 -265.08)"/><path id="Path_960" data-name="Path 960" class="cls-1" d="M769.26,415.24a19.13,19.13,0,0,1-18.14-.06,1.93,1.93,0,0,1-1.23-1.51,1.56,1.56,0,0,1,.83-1.58,2.09,2.09,0,0,1,2.47.8,2.14,2.14,0,0,1-.19,2.54c-1.41,1.91-4.08,1.73-6.18,1.69-4.54-.1-9.31.27-13.37,2.47-3.82,2.07-6.89,6-7,10.43a.61.61,0,0,0,.63.58.62.62,0,0,0,.59-.58c.08-4.41,3.41-8,7.25-9.82a21.93,21.93,0,0,1,7.52-1.77c1.27-.09,2.54-.12,3.8-.1a25.36,25.36,0,0,0,3.8-.08c2.18-.3,4.52-1.7,4.68-4.12a3.33,3.33,0,0,0-3.29-3.37,3.13,3.13,0,0,0-1.1.17,2.86,2.86,0,0,0-1.44,3.78c.06.13.13.25.2.37a5.53,5.53,0,0,0,2.4,1.68,20.37,20.37,0,0,0,18.36-.46C770.57,415.92,770,414.87,769.26,415.24Z" transform="translate(-531.59 -265.08)"/><path id="Path_961" data-name="Path 961" class="cls-3" d="M714.18,336.18a15,15,0,0,1,9.65,13.17c.17,2.91-.52,6.27-2.69,8.36a4.2,4.2,0,0,1-3.8,1.25,3.21,3.21,0,0,1-2.65-2.37,2.86,2.86,0,0,1,1.7-2.86,5,5,0,0,1,3.88-.37,14.27,14.27,0,0,1,4.49,2.74,32.85,32.85,0,0,0,4.25,3,26,26,0,0,0,35.16-9,22.45,22.45,0,0,0,1.18-2.15c.35-.7-.7-1.32-1.05-.61a24.8,24.8,0,0,1-33.14,11.51,24.26,24.26,0,0,1-3.08-1.77c-2.83-1.9-5.55-5.17-9.25-5.19-2.71,0-6,2-5.29,5.13a4.31,4.31,0,0,0,2.81,2.91,5.13,5.13,0,0,0,4.31-.36c2.88-1.61,4.14-5.2,4.38-8.32a16.44,16.44,0,0,0-8.44-15.35,13.3,13.3,0,0,0-2.09-.9c-.75-.26-1.07.92-.33,1.17Z" transform="translate(-531.59 -265.08)"/></g></svg>